<?xml version="1.0" encoding="UTF-8" standalone="no"?>
<svg
   xmlns:dc="http://purl.org/dc/elements/1.1/"
   xmlns:cc="http://creativecommons.org/ns#"
   xmlns:rdf="http://www.w3.org/1999/02/22-rdf-syntax-ns#"
   xmlns:svg="http://www.w3.org/2000/svg"
   xmlns="http://www.w3.org/2000/svg"
   xmlns:sodipodi="http://sodipodi.sourceforge.net/DTD/sodipodi-0.dtd"
   xmlns:inkscape="http://www.inkscape.org/namespaces/inkscape"
   inkscape:version="1.0 (4035a4fb49, 2020-05-01)"
   sodipodi:docname="agria_logo4.svg"
   viewBox="0 0 929.26806 285.54223"
   height="285.54224"
   width="929.26807"
   version="1.1"
   id="svg">
  <metadata
     id="metadata9">
    <rdf:RDF>
      <cc:Work
         rdf:about="">
        <dc:format>image/svg+xml</dc:format>
        <dc:type
           rdf:resource="http://purl.org/dc/dcmitype/StillImage" />
        <dc:title />
      </cc:Work>
    </rdf:RDF>
  </metadata>
  <defs
     id="defs7" />
  <sodipodi:namedview
     inkscape:document-rotation="0"
     inkscape:current-layer="svg"
     inkscape:window-maximized="1"
     inkscape:window-y="0"
     inkscape:window-x="0"
     inkscape:cy="215.17503"
     inkscape:cx="381.64699"
     inkscape:zoom="1.497216"
     fit-margin-bottom="0"
     fit-margin-right="0"
     fit-margin-left="0"
     fit-margin-top="0"
     showgrid="false"
     id="namedview5"
     inkscape:window-height="1008"
     inkscape:window-width="1920"
     inkscape:pageshadow="2"
     inkscape:pageopacity="0"
     guidetolerance="10"
     gridtolerance="10"
     objecttolerance="10"
     borderopacity="1"
     bordercolor="#666666"
     pagecolor="#ffffff" />
  <g
     style="fill:#000000"
     transform="translate(-64.66983,-14.220028)"
     id="svgg">
    <path
       sodipodi:nodetypes="ccccccsccccccscccccccscccsccccccccccccccccccccsc"
       style="fill:#000000;fill-rule:evenodd;stroke:none"
       inkscape:connector-curvature="0"
       d="M 179.167,16.087 C 150.36,26.911 148.43,69.967 176.149,83.385 208.56,99.075 242.046,64.108 224.502,32.892 216.38,18.441 194.492,10.328 179.167,16.087 m 26.051,20.192 c 16.21,16.209 -0.257,41.472 -20.901,32.065 -6.125,-2.79 -11.4,-11.499 -11.4,-18.819 0,-15.27 21.472,-24.076 32.301,-13.246 m 63.906,35.975 c -20.505,10.104 -25.711,38.559 -10.272,56.143 23.188,26.41 64.166,10.613 64.03,-24.684 C 322.783,77.844 293.068,60.455 269.124,72.254 M 82.98,74.939 c -32.326,17.569 -19.027,68.811 17.859,68.811 34.979,0 50.113,-46.704 21.693,-66.941 C 113.114,70.104 93.577,69.18 82.98,74.939 M 298.6,89.674 c 11.368,8.942 8.326,28.337 -5.184,33.047 -19.923,6.945 -35.414,-16.46 -20.66,-31.215 7.418,-7.417 17.807,-8.154 25.844,-1.832 m -185.499,2.018 c 11.125,8.751 8.975,26.1 -3.998,32.256 -19.685,9.341 -37.129,-14.992 -21.763,-30.358 7.385,-7.386 17.808,-8.154 25.761,-1.898 m 157.379,83.247 c -32.326,17.569 -19.027,68.811 17.859,68.811 34.979,0 50.113,-46.704 21.693,-66.941 -9.418,-6.705 -28.955,-7.629 -39.552,-1.87 m -184.689,3.565 c -20.505,10.104 -25.711,38.559 -10.273,56.143 23.189,26.41 64.167,10.613 64.031,-24.684 -0.099,-25.869 -29.815,-43.258 -53.758,-31.459 m 214.81,13.188 c 17.127,13.472 1.425,40.238 -19.356,32.994 -12.842,-4.477 -16.289,-21.212 -6.405,-31.096 7.385,-7.386 17.808,-8.154 25.761,-1.898 m -185.334,4.232 c 11.368,8.942 8.325,28.337 -5.185,33.047 -19.922,6.945 -35.413,-16.46 -20.659,-31.215 7.418,-7.417 17.807,-8.154 25.844,-1.832 m 68.066,32.663 c -28.806,10.824 -30.737,53.88 -3.018,67.298 32.412,15.69 65.897,-19.277 48.353,-50.493 -8.121,-14.451 -30.009,-22.564 -45.335,-16.805 m 26.052,20.192 c 10.002,10.002 8.37,25.48 -3.325,31.528 -20.005,10.345 -38.748,-14.606 -22.887,-30.467 7.919,-7.919 18.91,-8.364 26.212,-1.061"
       id="path0" />
  </g>
  <g
     style="font-style:normal;font-weight:normal;font-size:40px;line-height:0;font-family:sans-serif;letter-spacing:0px;word-spacing:0px;fill:#000000;fill-opacity:1;stroke:none"
     id="text3716"
     aria-label="acria.
network">
    <path
       id="path11"
       style="font-style:normal;font-variant:normal;font-weight:bold;font-stretch:normal;font-size:160px;line-height:1;font-family:Santana;-inkscape-font-specification:'Santana Bold';fill:#000000"
       d="m 385.10918,117.47205 q 1.12,0 0.8,-1.12 -0.8,-3.52 -1.44,-8.48 -0.64,-4.96 -0.64,-10.079996 v -26.72 q 0,-6.24 -1.6,-12.32 -1.44,-6.08 -5.44,-10.72 -3.84,-4.8 -10.4,-7.68 -6.56,-3.04 -16.64,-3.04 -3.68,0 -7.04,0.32 -3.2,0.32 -6.08,0.8 -0.8,0.32 -0.8,1.12 0,0.32 0.32,2.72 0.48,2.4 0.96,5.6 0.64,3.2 0.8,4.32 0,1.12 1.12,0.8 1.92,-0.32 3.84,-0.48 2.08,-0.32 3.84,-0.32 5.76,0 9.12,1.6 3.36,1.44 4.96,3.68 1.76,2.08 2.24,4.48 0.48,2.4 0.48,3.84 v 0.16 q -24.48,0 -37.12,7.68 -12.48,7.52 -12.48,22.24 0,3.52 1.12,7.199996 1.28,3.52 3.52,6.56 2.4,3.04 5.76,5.28 3.36,2.24 7.84,3.04 2.72,0.48 5.12,0.8 2.4,0.32 4.64,0.32 4.48,0 9.44,-1.6 3.52,-1.12 6.88,-3.68 3.52,-2.72 5.76,-4.48 l 0.96,-0.96 2.72,9.92 q 0.32,0.8 1.12,0.8 z m -21.12,-28.319996 q 0,2.08 -0.64,4 -1.6,4 -6.08,7.519996 -4.48,3.52 -11.2,3.52 -5.12,0 -8.32,-2.56 -3.2,-2.719996 -3.2,-7.839996 0,-4 2.4,-6.72 2.4,-2.72 6.4,-4.32 4,-1.6 9.28,-2.24 5.44,-0.64 11.36,-0.64 z" />
    <path
       id="path13"
       style="font-style:normal;font-variant:normal;font-weight:bold;font-stretch:normal;font-size:160px;line-height:1;font-family:Santana;-inkscape-font-specification:'Santana Bold';fill:#000000"
       d="m 446.70911,37.312054 q -10.88,0 -19.52,3.2 -8.64,3.2 -14.56,8.96 -5.92,5.6 -9.12,13.28 -3.04,7.68 -3.04,16.48 0,8.96 3.04,16.32 3.04,7.359996 8.64,12.639996 5.6,5.28 13.44,8.32 8,2.88 17.92,2.88 8.64,0 15.2,-1.6 6.56,-1.6 9.76,-3.2 0.8,-0.32 0.48,-0.96 l -2.72,-13.6 q -0.32,-1.119996 -1.28,-0.799996 -3.2,1.279996 -7.52,2.559996 -4.32,1.12 -10.24,1.12 -5.44,0 -10.24,-1.6 -4.64,-1.759996 -8.16,-4.959996 -3.52,-3.2 -5.6,-7.68 -1.92,-4.64 -1.92,-10.56 0,-5.28 1.76,-9.76 1.76,-4.48 5.12,-7.84 3.36,-3.36 8.16,-5.12 4.96,-1.92 11.04,-1.92 6.08,0 10.08,1.12 4,0.96 6.72,2.24 1.12,0.48 1.44,-0.48 l 3.52,-13.92 q 0.16,-0.48 -0.64,-0.96 -3.68,-1.76 -9.6,-2.88 -5.76,-1.28 -12.16,-1.28 z" />
    <path
       id="path15"
       style="font-style:normal;font-variant:normal;font-weight:bold;font-stretch:normal;font-size:160px;line-height:1;font-family:Santana;-inkscape-font-specification:'Santana Bold';fill:#000000"
       d="m 531.18894,56.032054 v -17.44 q 0,-0.64 -0.64,-0.8 -1.28,-0.32 -2.4,-0.32 -0.96,-0.16 -2.56,-0.16 -6.24,0 -12.32,3.52 -6.08,3.52 -9.76,10.72 l -0.8,-11.52 q 0,-0.96 -0.96,-0.96 h -16.32 q -0.96,0 -0.96,0.96 0.32,5.44 0.48,11.52 0.16,5.92 0.16,14.08 v 50.879996 q 0,0.96 0.96,0.96 h 18.72 q 0.96,0 0.96,-0.96 V 76.832054 q 0,-1.12 0,-2.56 0.16,-1.6 0.48,-2.88 1.6,-6.4 6.08,-10.72 4.64,-4.32 11.84,-4.32 3.2,0 5.92,0.48 z" />
    <path
       id="path17"
       style="font-style:normal;font-variant:normal;font-weight:bold;font-stretch:normal;font-size:160px;line-height:1;font-family:Santana;-inkscape-font-specification:'Santana Bold';fill:#000000"
       d="m 564.78885,117.47205 q 0.96,0 0.96,-0.96 V 40.032054 q 0,-0.96 -0.96,-0.96 h -18.72 q -0.96,0 -0.96,0.96 v 76.479996 q 0,0.96 0.96,0.96 z m 2.88,-100.479996 q -0.16,-4.8 -3.36,-8.1600005 -3.2,-3.36 -8.8,-3.36 -5.6,0 -8.96,3.52 -3.2,3.3600005 -3.2,8.0000005 0,4.64 3.2,8.16 3.2,3.36 8.8,3.36 5.76,0 8.96,-3.36 3.36,-3.52 3.36,-8.16 z" />
    <path
       id="path19"
       style="font-style:normal;font-variant:normal;font-weight:bold;font-stretch:normal;font-size:160px;line-height:1;font-family:Santana;-inkscape-font-specification:'Santana Bold';fill:#000000"
       d="m 653.42857,117.47205 q 1.12,0 0.8,-1.12 -0.8,-3.52 -1.44,-8.48 -0.64,-4.96 -0.64,-10.079996 v -26.72 q 0,-6.24 -1.6,-12.32 -1.44,-6.08 -5.44,-10.72 -3.84,-4.8 -10.4,-7.68 -6.56,-3.04 -16.64,-3.04 -3.68,0 -7.04,0.32 -3.2,0.32 -6.08,0.8 -0.8,0.32 -0.8,1.12 0,0.32 0.32,2.72 0.48,2.4 0.96,5.6 0.64,3.2 0.8,4.32 0,1.12 1.12,0.8 1.92,-0.32 3.84,-0.48 2.08,-0.32 3.84,-0.32 5.76,0 9.12,1.6 3.36,1.44 4.96,3.68 1.76,2.08 2.24,4.48 0.48,2.4 0.48,3.84 v 0.16 q -24.48,0 -37.12,7.68 -12.48,7.52 -12.48,22.24 0,3.52 1.12,7.199996 1.28,3.52 3.52,6.56 2.4,3.04 5.76,5.28 3.36,2.24 7.84,3.04 2.72,0.48 5.12,0.8 2.4,0.32 4.64,0.32 4.48,0 9.44,-1.6 3.52,-1.12 6.88,-3.68 3.52,-2.72 5.76,-4.48 l 0.96,-0.96 2.72,9.92 q 0.32,0.8 1.12,0.8 z m -21.12,-28.319996 q 0,2.08 -0.64,4 -1.6,4 -6.08,7.519996 -4.48,3.52 -11.2,3.52 -5.12,0 -8.32,-2.56 -3.2,-2.719996 -3.2,-7.839996 0,-4 2.4,-6.72 2.4,-2.72 6.4,-4.32 4,-1.6 9.28,-2.24 5.44,-0.64 11.36,-0.64 z" />
    <path
       id="path21"
       style="font-style:normal;font-variant:normal;font-weight:bold;font-stretch:normal;font-size:160px;line-height:1;font-family:Santana;-inkscape-font-specification:'Santana Bold';fill:#000000"
       d="m 676.9485,119.39205 q 5.76,0 9.28,-3.68 3.52,-3.84 3.52,-9.28 0,-5.76 -3.52,-9.279996 -3.52,-3.68 -9.28,-3.68 -5.76,0 -9.28,3.68 -3.52,3.519996 -3.52,9.279996 0,5.44 3.52,9.28 3.52,3.68 9.28,3.68 z" />
    <path
       id="path23"
       style="font-style:normal;font-variant:normal;font-weight:bold;font-stretch:normal;font-size:160px;line-height:1;font-family:Santana;-inkscape-font-specification:'Santana Bold';fill:#000000"
       d="m 399.66918,277.47205 q 1.28,-0.32 0.64,-1.44 -0.16,-0.32 -1.28,-2.56 -0.96,-2.24 -2.24,-5.92 -1.12,-3.68 -1.12,-6.56 v -28.16 q 0,-10.4 -3.04,-17.28 -2.88,-6.88 -7.36,-10.88 -4.48,-4.16 -9.92,-5.76 -5.44,-1.6 -10.4,-1.6 -4.8,0 -8.96,1.12 -4,1.12 -7.36,3.04 -3.2,1.76 -5.76,4 -2.56,2.24 -4.16,4.48 l -1.12,-10.08 q 0,-0.8 -0.96,-0.8 h -16.32 q -0.96,0 -0.96,0.96 0.32,5.12 0.48,10.72 0.16,5.44 0.16,11.84 v 53.92 q 0,0.96 0.96,0.96 h 18.72 q 0.96,0 0.96,-0.96 v -44.48 q 0,-1.44 0.16,-2.88 0.32,-1.6 0.8,-2.88 1.76,-4.48 6.08,-8.16 4.32,-3.84 10.88,-3.84 8.8,0 12.64,5.92 3.84,5.76 3.84,14.72 v 26.08 q 0,5.76 1.28,10.4 1.28,4.48 2.4,6.4 1.12,2.08 1.28,2.4 0.16,0.48 0.96,0.48 z" />
    <path
       id="path25"
       style="font-style:normal;font-variant:normal;font-weight:bold;font-stretch:normal;font-size:160px;line-height:1;font-family:Santana;-inkscape-font-specification:'Santana Bold';fill:#000000"
       d="m 489.90892,235.71205 q 0,-5.6 -1.76,-12.32 -1.6,-6.72 -5.76,-12.48 -4.16,-5.76 -11.2,-9.6 -7.04,-4 -17.76,-4 -10.24,0 -17.92,3.68 -7.68,3.52 -12.8,9.6 -5.12,5.92 -7.68,13.6 -2.56,7.52 -2.56,15.36 0,8.96 2.88,16.32 2.88,7.36 8.32,12.64 5.6,5.12 13.6,8 8,2.88 18.08,2.88 3.68,0 7.2,-0.16 3.68,-0.16 7.04,-0.96 0.8,-0.32 0.8,-1.12 l -2.08,-13.6 q 0,-0.64 -1.12,-0.64 -4.32,0.48 -9.44,0.48 -4.64,0 -8.96,-1.44 -4.32,-1.44 -7.84,-3.84 -3.36,-2.56 -5.76,-6.08 -2.4,-3.52 -3.04,-7.84 h 56.16 q 0.64,0 0.96,-0.8 0.32,-1.12 0.48,-3.04 0.16,-2.08 0.16,-4.64 z m -37.6,-24 q 5.44,0 8.8,1.92 3.52,1.92 5.44,4.8 2.08,2.72 2.88,5.76 0.8,3.04 0.96,5.12 h -38.08 q 0.48,-2.88 1.76,-5.92 1.28,-3.2 3.68,-5.76 2.4,-2.56 5.92,-4.16 3.68,-1.76 8.64,-1.76 z" />
    <path
       id="path27"
       style="font-style:normal;font-variant:normal;font-weight:bold;font-stretch:normal;font-size:160px;line-height:1;font-family:Santana;-inkscape-font-specification:'Santana Bold';fill:#000000"
       d="m 497.26875,200.03205 q -0.16,0.16 -0.16,1.76 0,1.44 0,1.76 v 10.88 q 0,0.32 0.32,0.48 0.32,0.16 0.64,0.16 h 11.52 v 35.36 q 0,7.2 1.6,12.8 1.6,5.6 4.96,9.28 2.72,3.04 7.2,4.96 4.64,1.92 10.56,1.92 4.8,0 8.64,-0.64 4,-0.64 6.24,-1.6 0.64,-0.32 0.64,-0.96 l -0.48,-14.08 q 0,-1.28 -1.28,-0.96 -1.76,0.64 -3.52,0.96 -1.76,0.16 -4.64,0.16 -5.76,0 -7.84,-3.84 -1.92,-3.84 -1.92,-10.4 v -32.96 h 18.4 q 0.96,0 0.96,-0.96 l 0.8,-14.08 q 0,-0.96 -0.96,-0.96 h -19.2 v -18.56 q 0,-1.28 -1.28,-0.96 l -18.24,5.12 q -0.64,0.32 -0.64,0.96 v 13.44 h -9.12 q -0.32,0 -0.64,0.32 z" />
    <path
       id="path29"
       style="font-style:normal;font-variant:normal;font-weight:bold;font-stretch:normal;font-size:160px;line-height:1;font-family:Santana;-inkscape-font-specification:'Santana Bold';fill:#000000"
       d="m 679.50845,200.35205 q 0.32,-1.28 -0.8,-1.28 h -18.4 q -0.48,0 -0.8,0.64 l -10.08,35.2 q -1.44,4.96 -2.88,10.72 -1.28,5.76 -2.24,10.56 -0.8,-3.04 -1.44,-5.44 -0.64,-2.4 -1.44,-4.8 -0.64,-2.4 -1.44,-4.96 -0.64,-2.72 -1.76,-6.08 l -11.04,-35.2 q -0.32,-0.64 -0.96,-0.64 h -15.36 q -0.64,0 -0.96,0.64 -2.72,8.64 -5.92,17.92 -3.04,9.28 -5.76,17.92 -0.16,0.32 -0.32,0.8 0,0.48 -0.16,0.8 -1.6,5.12 -3.04,9.6 -1.28,4.48 -2.56,9.76 -0.8,-3.04 -1.44,-5.6 -0.48,-2.56 -0.96,-4.8 -0.48,-2.4 -1.12,-4.8 -0.64,-2.56 -1.44,-5.76 l -9.44,-35.84 q -0.32,-0.64 -0.96,-0.64 h -18.88 q -1.12,0 -0.8,1.28 l 24,76.48 q 0.32,0.64 0.96,0.64 h 17.76 q 0.64,0 0.96,-0.64 l 11.2,-32.48 q 1.76,-5.12 3.04,-9.92 1.28,-4.8 2.56,-11.04 0.96,3.36 1.6,6.08 0.64,2.56 1.28,4.96 0.64,2.24 1.44,4.64 0.8,2.4 1.76,5.44 l 10.56,32.32 q 0.32,0.64 0.96,0.64 h 17.76 q 0.64,0 0.96,-0.64 z" />
    <path
       id="path31"
       style="font-style:normal;font-variant:normal;font-weight:bold;font-stretch:normal;font-size:160px;line-height:1;font-family:Santana;-inkscape-font-specification:'Santana Bold';fill:#000000"
       d="m 774.0682,237.31205 q 0,-8.48 -3.04,-15.84 -3.04,-7.36 -8.64,-12.64 -5.44,-5.44 -13.28,-8.48 -7.84,-3.04 -17.44,-3.04 -9.76,0 -17.92,3.04 -8,2.88 -13.76,8.48 -5.76,5.44 -8.96,13.12 -3.2,7.68 -3.2,17.12 0,9.12 3.2,16.64 3.36,7.36 9.12,12.64 5.76,5.28 13.44,8.16 7.84,2.88 16.8,2.88 8.32,0 16.16,-2.56 7.84,-2.72 13.92,-8 6.08,-5.28 9.76,-13.12 3.84,-7.84 3.84,-18.4 z m -21.28,0.8 q 0,6.24 -1.76,11.04 -1.76,4.8 -4.8,8.16 -2.88,3.36 -7.04,5.12 -4,1.6 -8.64,1.6 -4.64,0 -8.64,-1.76 -4,-1.92 -7.04,-5.28 -2.88,-3.36 -4.64,-8 -1.6,-4.8 -1.6,-10.56 0,-4.96 1.28,-9.6 1.44,-4.8 4.16,-8.32 2.88,-3.68 7.04,-5.76 4.16,-2.24 9.92,-2.24 5.76,0 9.76,2.4 4.16,2.24 6.72,5.92 2.72,3.52 4,8.16 1.28,4.64 1.28,9.12 z m -20.96,-7.84 q -3.04,0 -5.12,2.08 -1.92,2.08 -1.92,4.96 0,3.04 1.92,5.12 2.08,2.08 5.12,2.08 2.88,0 4.96,-2.08 2.08,-2.08 2.08,-5.12 0,-2.88 -2.08,-4.96 -2.08,-2.08 -4.96,-2.08 z" />
    <path
       id="path33"
       style="font-style:normal;font-variant:normal;font-weight:bold;font-stretch:normal;font-size:160px;line-height:1;font-family:Santana;-inkscape-font-specification:'Santana Bold';fill:#000000"
       d="m 837.10812,216.03205 v -17.44 q 0,-0.64 -0.64,-0.8 -1.27999,-0.32 -2.4,-0.32 -0.96,-0.16 -2.56,-0.16 -6.23999,0 -12.31999,3.52 -6.08001,3.52 -9.76,10.72 l -0.80001,-11.52 q 0,-0.96 -0.95999,-0.96 h -16.32001 q -0.96,0 -0.96,0.96 0.32,5.44 0.48,11.52 0.16001,5.92 0.16001,14.08 v 50.88 q 0,0.96 0.95999,0.96 h 18.72 q 0.96001,0 0.96001,-0.96 v -39.68 q 0,-1.12 0,-2.56 0.15999,-1.6 0.48,-2.88 1.59999,-6.4 6.07999,-10.72 4.64,-4.32 11.84,-4.32 3.20001,0 5.92,0.48 z" />
    <path
       id="path35"
       style="font-style:normal;font-variant:normal;font-weight:bold;font-stretch:normal;font-size:160px;line-height:1;font-family:Santana;-inkscape-font-specification:'Santana Bold';fill:#000000"
       d="m 928.30804,277.47205 q 0.64,0 0.8,-0.48 0.32,-0.64 0,-1.12 -9.12,-11.2 -18.24,-22.4 -8.96,-11.2 -17.92,-22.4 l 31.04,-30.4 q 0.48,-0.48 0.32,-0.96 -0.16,-0.64 -0.96,-0.64 h -23.04 q -0.48,0 -0.8,0.32 -5.44,6.24 -10.88,12.64 -5.44,6.24 -11.04,12.48 h 0.16 q -1.28,1.28 -2.72,3.04 -1.28,1.76 -2.56,3.36 l -0.32,-67.04 q 0,-0.96 -0.96,-0.96 h -18.72 q -0.96,0 -0.96,0.96 v 112.64 q 0,0.96 0.96,0.96 h 18.72 q 0.96,0 0.96,-0.96 v -26.24 q 1.76,-1.76 3.2,-3.52 1.6,-1.92 3.2,-3.52 l 26.24,35.52 q 0.32,0.32 0.8,0.32 z" />
  </g>
</svg>
